<svg width="35" height="35" viewBox="0 0 35 35" fill="none" xmlns="http://www.w3.org/2000/svg">
<g clip-path="url(#clip0_2336_1131)">
<path fill-rule="evenodd" clip-rule="evenodd" d="M17.5 2.91675C20.981 2.91675 24.3194 4.29956 26.7808 6.76097C29.2422 9.22239 30.625 12.5608 30.625 16.0417C30.625 20.5247 28.1808 24.1938 25.6054 26.8261C24.3185 28.1268 22.9145 29.3062 21.4113 30.3495L20.79 30.7724L20.4983 30.9663L19.9485 31.3163L19.4585 31.6153L18.8519 31.9682C18.4399 32.2027 17.974 32.326 17.5 32.326C17.026 32.326 16.5601 32.2027 16.1481 31.9682L15.5415 31.6153L14.7831 31.1486L14.5031 30.9663L13.9052 30.5682C12.2835 29.4706 10.7728 28.2173 9.39458 26.8261C6.81917 24.1924 4.375 20.5247 4.375 16.0417C4.375 12.5608 5.75781 9.22239 8.21922 6.76097C10.6806 4.29956 14.019 2.91675 17.5 2.91675ZM17.5 5.83341C14.7926 5.83341 12.1961 6.90893 10.2816 8.82337C8.36718 10.7378 7.29167 13.3343 7.29167 16.0417C7.29167 19.428 9.14667 22.4001 11.4785 24.7859C12.4813 25.8008 13.565 26.7323 14.719 27.5713L15.3869 28.0467C15.6027 28.197 15.8098 28.337 16.0096 28.4667L16.5783 28.8313L17.0785 29.1361L17.5 29.3826L18.1635 28.9903L18.6987 28.6549C18.9831 28.474 19.2894 28.2713 19.6131 28.0467L20.281 27.5713C21.435 26.7323 22.5187 25.8008 23.5215 24.7859C25.8533 22.4015 27.7083 19.428 27.7083 16.0417C27.7083 13.3343 26.6328 10.7378 24.7184 8.82337C22.8039 6.90893 20.2074 5.83341 17.5 5.83341ZM17.5 10.2084C19.0471 10.2084 20.5308 10.823 21.6248 11.917C22.7188 13.0109 23.3333 14.4947 23.3333 16.0417C23.3333 17.5888 22.7188 19.0726 21.6248 20.1665C20.5308 21.2605 19.0471 21.8751 17.5 21.8751C15.9529 21.8751 14.4692 21.2605 13.3752 20.1665C12.2812 19.0726 11.6667 17.5888 11.6667 16.0417C11.6667 14.4947 12.2812 13.0109 13.3752 11.917C14.4692 10.823 15.9529 10.2084 17.5 10.2084ZM17.5 13.1251C16.7265 13.1251 15.9846 13.4324 15.4376 13.9794C14.8906 14.5263 14.5833 15.2682 14.5833 16.0417C14.5833 16.8153 14.8906 17.5572 15.4376 18.1041C15.9846 18.6511 16.7265 18.9584 17.5 18.9584C18.2735 18.9584 19.0154 18.6511 19.5624 18.1041C20.1094 17.5572 20.4167 16.8153 20.4167 16.0417C20.4167 15.2682 20.1094 14.5263 19.5624 13.9794C19.0154 13.4324 18.2735 13.1251 17.5 13.1251Z" fill="#008ECC"/>
</g>
<defs>
<clipPath id="clip0_2336_1131">
<rect width="35" height="35" fill="white"/>
</clipPath>
</defs>
</svg>
